# xmcd
#
# Track frame offsets:
#	150
#	7076
#	25577
#	31893
#	42821
#	43934
#	53786
#	62132
#	75135
#	121836
#	127159
#	139100
#	142448
#	153455
#	161163
#	172300
#	174345
#	191197
#
# Disc length: 2743 seconds
#
# Revision: 0
# Processed by: cddbd v1.5.2PL0 Copyright (c) Steve Scherf et al.
# Submitted via: audiograbber 1.83.01
#
DISCID=010ab512
DTITLE=Domchor Paderborn - Aus den Quellen der Gregorianik
DYEAR=2006
DGENRE=Gregorianik
TTITLE0=Kyrie aus der Missa "Lux et origo"
TTITLE1=Palestrina: Kyrie au ser Missa Papae Marcelli (6stg)
TTITLE2=Graduale: Benedicta es tu, Virgo Maria
TTITLE3=Rheinberger: Benedicta es tu, Virgo Maria (5stg)
TTITLE4=Graduale: Ubi caritas
TTITLE5=Duruflé: Ubi caritas (4-5stg)
TTITLE6=Graduale: Dextera Domini
TTITLE7=Palestrina: Offertorium: Dextera Domini (5stg)
TTITLE8=Allegri: Psalm 50: Miserere mei (5stg)
TTITLE9=Antiphon: Sicut cervus
TTITLE10=Palestrina: Sicut cervus (4stg)
TTITLE11=Marinanische Antiphon: Regina coeli
TTITLE12=Aichinger: Regina coeli (4stg)
TTITLE13=Offertorium: Mediatabor
TTITLE14=Witt: Mediatabor (4stg)
TTITLE15=Antiphon: Tu es Petrus
TTITLE16=Palestrina: Tu es Petrus (6stg)
TTITLE17=Göbel: Franciae quondam (4stg)
EXTD=Mit dem Domchor Paderborn durch das Kirchenjahr\nLeitung: Theodor Holthoff
EXTD=\nAufnahme: Christoph Schulz\nProduktion: MUSICOM Schulz and Schulz GbR Müns
EXTD=ter/Westf. 
EXTT0=
EXTT1=
EXTT2=
EXTT3=
EXTT4=
EXTT5=
EXTT6=
EXTT7=
EXTT8=
EXTT9=
EXTT10=
EXTT11=
EXTT12=
EXTT13=
EXTT14=
EXTT15=
EXTT16=
EXTT17=
PLAYORDER=
